<?xml version="1.0" standalone="no"?>
<!DOCTYPE svg PUBLIC "-//W3C//DTD SVG 20010904//EN"
 "http://www.w3.org/TR/2001/REC-SVG-20010904/DTD/svg10.dtd">
<svg version="1.0" xmlns="http://www.w3.org/2000/svg"
 width="1280.000000pt" height="1280.000000pt" viewBox="0 0 1280.000000 1280.000000"
 preserveAspectRatio="xMidYMid meet">
<metadata>
Created by potrace 1.15, written by Peter Selinger 2001-2017
</metadata>
<g transform="translate(0.000000,1280.000000) scale(0.100000,-0.100000)"
fill="#000000" stroke="none">
<path d="M6378 11761 c-5 -200 -8 -439 -8 -529 0 -91 -2 -163 -5 -160 -3 3
-12 47 -20 99 -32 210 -111 401 -211 509 -120 129 -369 209 -743 240 -69 6
-126 8 -129 6 -6 -6 143 -224 234 -343 182 -237 338 -389 465 -454 81 -40 227
-88 297 -97 55 -7 58 -8 80 -52 l23 -45 -7 -685 c-4 -377 -10 -792 -13 -923
l-6 -239 -66 51 -66 51 -12 86 c-26 185 -125 472 -213 614 -56 92 -194 242
-318 345 -89 75 -299 225 -313 225 -17 0 1 -236 28 -368 31 -153 103 -371 155
-478 103 -206 286 -347 532 -408 89 -22 103 -29 164 -81 37 -31 78 -64 92 -73
l25 -16 -7 -246 c-3 -135 -7 -378 -8 -540 l-2 -295 59 0 60 0 -3 175 c-1 96
-7 569 -13 1052 l-12 876 48 61 c26 34 49 61 51 61 1 0 33 -6 71 -14 104 -22
310 -39 381 -32 247 26 493 253 673 621 33 66 59 126 59 133 0 15 -189 16
-330 2 -326 -34 -541 -104 -654 -213 -46 -44 -70 -83 -156 -252 -56 -110 -110
-208 -120 -219 -18 -18 -18 -17 -24 35 -3 30 -8 344 -12 699 -4 355 -9 767
-13 915 l-6 270 -7 -364z"/>
<path d="M2650 11540 c-121 -240 -170 -448 -170 -718 0 -292 70 -556 211 -789
27 -45 49 -84 49 -87 0 -3 -13 0 -29 5 -22 8 -31 19 -35 43 -18 96 -153 314
-245 398 -88 79 -275 198 -457 291 -166 84 -354 171 -359 165 -2 -2 8 -48 21
-103 77 -318 211 -598 332 -693 123 -97 392 -164 604 -149 43 3 81 1 84 -4 3
-5 9 -7 14 -4 4 3 27 -2 51 -10 34 -12 44 -13 51 -3 6 9 15 3 34 -22 64 -83
253 -259 350 -323 222 -148 399 -207 879 -297 121 -22 227 -44 235 -47 8 -4
24 -8 35 -9 12 -1 57 -12 102 -23 366 -94 616 -262 847 -573 25 -34 26 -37 8
-33 -11 2 -49 22 -85 44 -231 147 -492 206 -658 151 -123 -41 -274 -141 -439
-291 -80 -73 -195 -197 -189 -204 9 -8 196 -25 385 -36 232 -13 442 -1 571 31
98 26 258 110 344 183 68 56 70 57 107 47 32 -9 43 -21 80 -84 23 -41 62 -116
86 -167 44 -95 146 -359 146 -378 0 -15 22 -14 87 5 65 19 65 7 -7 189 -196
495 -473 847 -825 1048 -108 62 -241 112 -415 156 l-144 37 -23 74 c-23 74
-23 76 -6 150 25 107 22 290 -5 391 -55 203 -210 395 -486 603 -127 96 -334
216 -372 216 -14 0 23 -200 70 -372 47 -172 105 -316 167 -417 90 -146 342
-388 518 -496 55 -34 63 -43 76 -88 8 -28 14 -51 12 -53 -4 -4 -460 74 -557
95 -297 65 -524 181 -722 369 -213 202 -350 433 -421 707 -94 365 -60 725 103
1072 21 45 37 83 34 83 -2 0 -22 -36 -44 -80z"/>
<path d="M10124 11542 c46 -92 100 -248 128 -374 20 -90 23 -129 23 -308 -1
-173 -4 -221 -23 -307 -100 -460 -384 -833 -790 -1037 -95 -48 -247 -98 -392
-130 -134 -29 -518 -92 -524 -85 -2 2 1 26 7 52 9 40 16 51 41 61 51 21 234
164 339 265 195 188 284 338 365 622 30 103 74 294 87 377 9 54 2 54 -106 -1
-176 -90 -368 -237 -535 -408 -136 -140 -193 -241 -229 -403 -20 -90 -16 -284
7 -371 12 -46 12 -57 -9 -129 -13 -44 -24 -80 -25 -81 -2 0 -50 -11 -108 -24
-539 -119 -904 -423 -1181 -985 -67 -136 -174 -395 -166 -402 5 -4 116 -34
129 -34 7 0 21 25 31 58 35 108 118 307 175 417 55 107 58 110 97 118 38 8 43
6 80 -28 95 -86 282 -184 405 -210 119 -26 481 -31 715 -10 105 9 194 20 198
24 10 10 -184 206 -283 287 -218 176 -368 242 -522 230 -144 -12 -343 -85
-492 -180 -97 -62 -99 -48 -13 66 134 179 309 331 483 420 119 62 346 139 448
153 12 1 28 5 36 8 8 4 114 25 235 47 478 89 662 152 883 299 100 68 266 220
333 307 31 40 45 52 47 41 4 -21 9 -21 61 -2 23 8 43 14 46 15 3 0 6 0 8 1 1
0 72 2 157 3 176 4 289 25 417 77 65 27 90 45 154 108 65 66 84 94 137 201 34
69 76 170 95 225 38 111 92 323 85 331 -6 6 -175 -69 -330 -147 -223 -112
-418 -239 -513 -334 -79 -78 -188 -264 -214 -362 -9 -32 -18 -43 -41 -52 -17
-5 -30 -7 -30 -4 0 3 15 31 34 62 94 155 161 331 198 514 19 92 23 144 23 297
0 212 -20 335 -81 511 -33 96 -118 279 -129 279 -3 0 10 -31 29 -68z"/>
<path d="M11572 8880 c0 -14 2 -19 5 -12 2 6 2 18 0 25 -3 6 -5 1 -5 -13z"/>
<path d="M1210 8864 c0 -38 47 -210 85 -306 78 -197 210 -395 359 -535 l76
-73 -55 0 c-53 0 -59 3 -122 56 -161 137 -425 285 -577 324 -127 32 -320 44
-518 30 -188 -12 -228 -18 -228 -32 0 -19 200 -206 298 -277 136 -101 319
-204 417 -236 177 -59 380 -41 561 50 86 44 92 45 182 45 l92 0 83 -56 c239
-162 547 -268 882 -305 133 -14 450 -7 715 17 262 23 614 24 754 0 151 -25
291 -68 425 -132 63 -30 118 -54 123 -54 12 0 97 63 98 72 0 13 -193 105 -297
141 -254 89 -549 115 -900 81 l-58 -5 -28 63 c-15 36 -33 97 -38 138 -29 210
-115 421 -214 528 -92 100 -255 170 -492 213 -114 20 -370 45 -379 36 -8 -7
120 -196 227 -337 209 -274 354 -409 515 -480 96 -42 227 -80 275 -80 23 0 32
-8 49 -41 12 -23 20 -42 18 -44 -6 -7 -418 -45 -548 -51 -303 -14 -625 44
-890 160 -123 54 -271 144 -277 167 -3 11 -14 19 -27 19 -11 0 -54 29 -95 64
-148 128 -274 294 -360 477 -55 117 -73 165 -106 294 -13 50 -24 80 -25 69z"/>
<path d="M11551 8795 c-51 -228 -190 -485 -359 -666 -88 -93 -180 -169 -205
-169 -10 0 -17 -6 -17 -14 0 -19 -120 -94 -250 -154 -275 -130 -610 -193 -930
-178 -153 8 -520 43 -528 51 -3 2 3 23 13 45 16 35 22 40 50 40 91 0 308 82
409 154 78 56 249 233 352 366 96 123 254 353 254 369 0 14 -37 14 -200 -4
-315 -33 -529 -103 -649 -211 -107 -97 -211 -345 -236 -564 -5 -41 -18 -84
-36 -118 -16 -29 -27 -58 -23 -63 4 -6 -35 -7 -113 -2 -454 31 -749 -15 -1051
-163 l-114 -55 53 -40 c29 -21 56 -39 61 -39 5 0 50 21 100 46 118 59 273 110
418 136 148 27 504 29 780 4 264 -24 581 -31 715 -17 334 37 619 134 866 296
l100 65 99 0 c94 0 102 -2 162 -34 154 -85 348 -116 508 -82 189 39 503 238
705 447 l90 93 -35 7 c-69 15 -366 30 -465 24 -186 -12 -323 -44 -450 -108
-141 -69 -342 -204 -410 -275 -27 -28 -36 -31 -91 -32 l-60 0 101 103 c188
191 318 423 385 688 12 45 20 89 18 98 -2 9 -10 -11 -17 -44z"/>
<path d="M6101 7695 c-259 -35 -523 -115 -756 -229 -243 -120 -424 -247 -619
-436 -210 -204 -349 -396 -481 -665 -125 -252 -196 -488 -237 -775 -19 -140
-16 -487 5 -630 83 -542 317 -1011 692 -1385 377 -377 841 -608 1374 -686 127
-19 175 -21 395 -16 192 4 276 10 357 25 501 95 922 310 1273 652 379 369 612
812 708 1347 20 111 23 162 23 388 0 282 -9 363 -65 593 -100 409 -313 792
-609 1096 -370 378 -807 609 -1341 707 -150 28 -558 36 -719 14z m694 -324
c237 -42 414 -100 620 -203 567 -282 985 -807 1136 -1422 44 -181 61 -328 61
-526 0 -353 -68 -650 -222 -965 -281 -574 -797 -992 -1420 -1150 -196 -50
-280 -59 -535 -59 -206 -1 -258 2 -365 22 -458 82 -851 284 -1171 602 -130
129 -198 212 -292 356 -173 265 -284 558 -333 884 -25 158 -25 463 0 620 139
899 772 1595 1646 1809 63 16 156 34 205 40 50 6 101 13 115 15 14 3 117 3
230 1 154 -2 235 -8 325 -24z"/>
<path d="M6441 6750 c-19 -4 -79 -11 -134 -15 -89 -7 -99 -9 -82 -21 10 -8 42
-15 69 -15 28 -1 43 -3 34 -6 -10 -2 -18 -9 -18 -14 0 -5 -9 -5 -22 0 -82 31
-169 38 -207 17 l-24 -13 21 -12 c12 -6 25 -10 29 -9 4 1 19 -4 31 -11 15 -8
48 -11 87 -9 55 3 63 1 62 -14 -1 -10 -9 -18 -19 -18 -9 0 -20 -4 -23 -10 -4
-6 45 -10 139 -10 88 0 146 4 146 10 0 5 -8 7 -17 4 -15 -5 -15 -3 1 10 11 9
32 16 47 16 16 0 34 8 42 20 9 12 28 21 53 24 21 2 83 15 137 30 53 14 109 26
124 26 20 0 24 3 16 11 -14 14 -441 22 -492 9z m-36 -60 c8 -13 -5 -13 -25 0
-13 8 -13 10 2 10 9 0 20 -4 23 -10z m62 4 c-3 -3 -12 -4 -19 -1 -8 3 -5 6 6
6 11 1 17 -2 13 -5z m-132 -72 c-3 -3 -11 0 -18 7 -9 10 -8 11 6 5 10 -3 15
-9 12 -12z"/>
<path d="M6988 6733 c-21 -2 -38 -8 -38 -14 0 -5 -17 -9 -37 -9 -21 0 -56 -5
-78 -12 l-40 -12 35 -5 c52 -9 26 -18 -72 -26 -49 -4 -90 -10 -93 -15 -3 -4
17 -11 43 -15 41 -7 44 -9 22 -16 -22 -6 -22 -7 -4 -8 11 -1 24 -4 28 -8 4 -5
58 -8 119 -8 95 -1 118 -4 153 -22 35 -19 66 -58 68 -88 1 -5 18 -10 39 -11
21 -1 43 -6 48 -11 7 -7 2 -9 -15 -6 -31 6 -64 -15 -44 -28 20 -13 56 -11 61
4 3 9 7 9 17 0 16 -15 3 -35 -19 -28 -38 12 -55 -57 -19 -76 10 -5 18 -15 18
-22 0 -23 89 -91 137 -105 79 -22 85 -21 108 22 11 22 26 41 33 44 7 2 12 11
12 19 0 24 31 42 70 43 36 0 113 30 124 48 13 21 -216 178 -383 262 -86 43
-255 114 -256 108 0 -1 -17 -3 -37 -5z"/>
<path d="M5850 6662 c0 -10 17 -15 99 -28 54 -8 48 11 -6 20 -21 4 -50 9 -65
12 -16 3 -28 1 -28 -4z"/>
<path d="M5693 6643 c9 -2 23 -2 30 0 6 3 -1 5 -18 5 -16 0 -22 -2 -12 -5z"/>
<path d="M6045 6635 c17 -8 44 -14 60 -14 29 0 28 1 -10 14 -53 19 -92 19 -50
0z"/>
<path d="M5648 6621 c12 -7 62 -4 62 5 0 2 -17 4 -37 4 -24 0 -33 -3 -25 -9z"/>
<path d="M5495 6610 c-27 -4 -61 -13 -75 -19 -21 -9 -17 -10 25 -6 28 3 62 5
77 6 14 0 32 6 38 14 14 17 14 17 -65 5z"/>
<path d="M6208 6613 c7 -3 16 -2 19 1 4 3 -2 6 -13 5 -11 0 -14 -3 -6 -6z"/>
<path d="M6064 6602 c4 -7 24 -12 44 -12 39 0 66 -12 60 -26 -5 -14 51 -21
180 -22 111 -1 147 6 128 26 -4 3 -54 5 -112 4 -109 -3 -149 3 -139 19 4 5
-17 9 -48 9 -30 0 -69 3 -87 7 -24 4 -31 3 -26 -5z"/>
<path d="M5734 6584 c5 -14 0 -15 -31 -10 -112 18 -131 18 -154 2 -23 -16 -22
-16 36 -16 45 0 56 -3 45 -11 -11 -7 2 -8 45 -3 33 4 74 8 90 9 17 1 38 3 48
4 32 2 17 21 -17 21 -19 0 -38 5 -41 10 -10 16 -28 11 -21 -6z"/>
<path d="M5860 6592 c0 -11 34 -22 72 -22 15 0 29 -4 32 -9 3 -4 17 -6 31 -3
25 4 41 19 32 28 -8 9 -67 13 -67 6 0 -9 -59 -7 -82 3 -10 4 -18 3 -18 -3z"/>
<path d="M6065 6560 c-4 -6 10 -10 35 -10 25 0 39 4 35 10 -3 6 -19 10 -35 10
-16 0 -32 -4 -35 -10z"/>
<path d="M5356 6527 c3 -9 -3 -21 -16 -30 -20 -14 -19 -15 22 -26 49 -13 75
-10 113 15 14 9 29 13 33 9 4 -4 1 -10 -6 -12 -9 -4 -7 -10 9 -24 16 -14 31
-17 70 -13 27 3 56 1 66 -6 15 -9 14 -10 -12 -9 -16 1 -46 1 -65 0 -27 -1 -31
-4 -20 -11 8 -5 30 -10 48 -10 17 0 32 -5 32 -11 0 -13 130 -5 158 10 10 5 26
5 37 0 11 -4 37 -8 59 -8 29 -1 37 2 33 13 -4 10 1 12 16 9 18 -4 19 -2 6 6
-8 5 -28 12 -43 15 -42 8 -73 57 -43 69 18 8 -34 8 -61 1 -17 -5 -21 -11 -17
-25 8 -23 -10 -26 -19 -3 -4 11 -14 15 -31 12 -32 -6 -135 10 -152 24 -7 5
-60 12 -118 15 -90 4 -104 3 -99 -10z"/>
<path d="M5945 6521 c-3 -5 3 -12 12 -15 10 -3 3 -4 -14 -2 -18 1 -33 -1 -33
-6 0 -4 8 -8 18 -8 9 0 29 -6 44 -14 17 -9 37 -12 55 -7 29 8 44 31 19 31 -10
0 -13 6 -10 15 5 12 -3 15 -39 15 -25 0 -48 -4 -52 -9z"/>
<path d="M6086 6521 c-4 -5 -3 -17 1 -27 4 -11 0 -22 -12 -30 -24 -18 -12 -44
20 -44 15 0 24 -4 21 -9 -4 -5 0 -11 6 -14 9 -3 6 -8 -7 -13 -11 -4 -23 -12
-27 -18 -6 -8 -11 -6 -17 4 -7 9 -6 17 1 21 6 4 8 11 4 17 -10 16 -52 20 -72
5 -16 -11 -16 -13 -1 -13 10 0 14 -5 11 -15 -8 -20 -84 -20 -153 1 -52 15
-107 12 -97 -5 3 -5 -36 -9 -87 -9 -50 0 -86 2 -79 5 28 11 8 21 -60 28 -40 5
-95 9 -123 9 -27 1 -53 5 -57 10 -4 6 -13 5 -22 -3 -12 -10 -19 -9 -40 4 -14
9 -31 13 -37 9 -7 -4 -35 -9 -63 -10 -28 -2 -61 -5 -73 -6 -25 -3 -188 -141
-232 -197 l-31 -38 53 -7 c62 -9 125 -35 151 -65 24 -26 40 -28 26 -2 -5 11
-10 26 -10 33 1 7 7 0 15 -17 7 -16 14 -24 14 -17 1 7 6 10 12 6 8 -5 8 -8 0
-14 -7 -3 -9 -14 -5 -24 8 -20 44 -42 44 -26 0 8 6 8 20 0 11 -6 20 -17 20
-25 0 -8 14 -21 30 -30 28 -15 34 -24 31 -51 -1 -6 19 -22 43 -35 52 -27 71
-71 57 -131 -14 -58 4 -120 51 -186 31 -44 52 -63 78 -71 27 -8 41 -21 60 -58
14 -26 35 -56 48 -67 18 -14 20 -21 11 -32 -9 -11 -7 -15 7 -20 26 -10 54 -35
49 -44 -3 -4 11 -20 30 -34 19 -15 35 -22 35 -16 0 6 -6 13 -14 16 -8 3 -17
16 -20 29 -4 14 -26 49 -51 80 -25 30 -45 62 -45 70 0 28 30 15 49 -22 11 -21
36 -51 55 -66 20 -15 35 -31 34 -35 -1 -4 22 -31 51 -59 44 -43 52 -57 47 -77
-8 -32 20 -52 131 -96 62 -24 91 -31 117 -26 27 5 40 2 64 -19 17 -14 55 -33
84 -41 59 -18 98 -48 98 -76 0 -10 7 -18 15 -18 8 0 23 -9 32 -20 10 -11 25
-20 34 -20 9 0 22 -7 29 -15 16 -19 30 -19 30 -1 0 18 23 37 35 28 35 -25 51
-132 23 -155 -50 -41 -90 -137 -56 -137 6 0 3 -9 -8 -21 -22 -25 -20 -56 7
-78 10 -9 39 -56 64 -105 55 -109 58 -112 115 -141 25 -13 53 -31 60 -41 17
-20 17 -123 0 -210 -7 -33 -14 -86 -17 -119 -3 -33 -15 -85 -29 -115 -13 -30
-23 -66 -23 -80 1 -14 -4 -45 -10 -69 -7 -24 -9 -46 -6 -49 3 -4 8 4 12 16 3
12 10 22 15 22 6 0 8 -10 4 -22 -3 -13 -6 -29 -6 -37 0 -11 -3 -11 -15 -1 -12
10 -15 9 -15 -5 0 -10 -7 -27 -17 -37 -15 -17 -15 -18 0 -18 21 0 22 -19 2
-26 -17 -7 -21 -54 -4 -54 6 0 8 -11 4 -29 -5 -23 -2 -29 15 -34 13 -3 19 -10
15 -17 -11 -18 99 -62 143 -56 20 3 46 6 57 6 13 0 5 7 -22 20 -24 10 -43 24
-43 30 0 5 -8 10 -17 11 -11 0 -13 3 -6 6 8 3 11 14 7 29 -4 16 -2 24 6 24 7
0 28 17 47 37 l34 38 -26 8 c-31 11 -30 41 2 45 25 4 46 52 37 88 -6 21 -4 23
28 18 30 -5 34 -3 44 24 10 25 17 30 60 35 34 3 54 12 67 28 11 14 15 25 8 27
-6 2 -11 10 -11 18 0 8 -7 17 -15 20 -8 4 -15 10 -15 15 0 5 12 4 26 -1 62
-24 109 -2 133 63 6 15 18 30 28 34 30 12 62 57 63 89 0 46 77 104 137 104 29
0 42 12 67 65 10 22 23 48 27 57 5 10 9 40 9 66 0 35 6 56 20 73 12 13 34 40
51 59 16 19 32 44 35 55 7 28 -12 75 -31 75 -8 0 -33 13 -55 29 -28 20 -57 30
-100 35 -33 4 -60 11 -60 15 0 16 -74 40 -87 29 -10 -8 -13 -6 -13 6 0 15 -17
21 -49 16 -10 -1 -10 3 3 15 15 16 15 19 1 34 -8 10 -15 25 -15 34 0 27 -69
67 -115 67 -41 0 -48 5 -136 85 -9 8 -21 15 -27 15 -5 0 -12 6 -15 13 -3 9
-11 9 -34 1 -18 -7 -37 -8 -44 -3 -8 5 -25 9 -37 9 -13 0 -37 9 -53 21 -24 17
-29 18 -29 5 0 -10 -9 -16 -21 -16 -18 0 -19 2 -9 15 17 20 -7 20 -34 0 -11
-8 -28 -15 -38 -15 -10 0 -21 -8 -25 -17 -3 -10 -13 -26 -21 -35 -14 -16 -17
-16 -42 -1 -23 13 -33 14 -61 4 -30 -10 -35 -9 -61 16 -27 26 -28 31 -22 81 8
66 1 72 -79 72 -51 0 -56 2 -49 18 5 9 16 39 25 67 18 55 11 69 -33 58 -36 -8
-40 -12 -40 -32 0 -25 -17 -37 -62 -45 -46 -8 -70 3 -98 49 -21 34 -23 79 -10
192 0 2 19 12 42 24 33 17 52 20 94 15 41 -5 53 -3 58 9 6 18 91 21 101 4 4
-6 13 -8 21 -5 22 8 54 -16 54 -40 0 -22 35 -74 50 -74 17 0 16 36 -2 80 -24
57 -18 79 32 115 96 70 91 64 85 103 -5 25 -3 33 3 23 11 -15 27 2 17 19 -3 6
1 10 9 10 8 0 18 9 21 20 4 13 21 24 50 31 33 8 42 15 38 28 -2 10 2 22 9 28
17 14 130 54 136 48 3 -2 -3 -7 -12 -11 -16 -6 -23 -34 -8 -34 5 0 17 7 28 15
10 8 25 15 32 15 7 0 28 7 47 14 26 11 33 19 28 32 -6 16 -7 16 -19 -1 -8 -10
-20 -15 -29 -11 -9 3 -13 2 -10 -4 3 -5 -6 -5 -24 1 -19 7 -31 19 -34 35 -2
13 0 24 4 24 5 0 9 5 9 10 0 15 -56 12 -95 -4 -46 -20 -44 -12 5 19 34 22 51
25 123 25 58 0 89 5 103 15 18 14 54 20 54 10 0 -9 -44 -70 -52 -73 -21 -10
-3 -19 38 -21 26 0 50 -3 54 -6 3 -2 16 3 28 11 25 18 19 44 -12 44 -35 0 -52
16 -37 33 9 12 9 16 -1 20 -10 4 -10 6 0 6 23 2 13 41 -13 51 -14 5 -25 14
-25 20 0 5 -11 10 -25 10 -14 0 -35 10 -46 23 -10 12 -38 44 -61 70 -41 47
-43 48 -58 30 -28 -35 -52 -43 -82 -27 -16 8 -28 23 -28 34 0 11 -7 20 -15 20
-9 0 -27 7 -41 17 -15 10 -51 17 -91 19 l-65 3 5 -34 c4 -23 1 -38 -9 -46 -13
-11 -12 -14 10 -26 40 -21 35 -60 -9 -79 -31 -13 -34 -16 -25 -40 14 -35 13
-42 -8 -53 -24 -13 -72 30 -72 64 0 26 -4 27 -81 40 -21 3 -52 13 -69 22 -18
8 -50 16 -70 16 -30 0 -40 5 -49 24 -7 14 -18 23 -28 21 -33 -6 -26 32 12 68
20 18 41 34 46 34 6 0 17 7 25 15 9 8 27 15 40 15 14 0 37 13 55 31 19 19 36
28 46 25 19 -8 93 11 93 24 0 5 -5 12 -11 16 -8 4 -7 9 2 16 11 7 11 11 2 15
-26 10 -12 21 25 20 20 -1 44 2 53 7 10 4 23 1 33 -9 9 -9 16 -13 16 -10 0 4
11 0 25 -9 13 -9 33 -16 43 -16 27 0 45 -23 30 -38 -7 -7 -18 -12 -25 -12 -7
0 -10 -7 -7 -15 5 -12 -3 -15 -37 -15 -50 0 -81 -13 -55 -23 8 -3 31 -3 50 0
34 5 94 -11 107 -30 3 -4 17 -10 30 -12 13 -2 43 -8 67 -13 35 -8 40 -7 31 4
-6 8 -18 14 -27 14 -8 0 -13 3 -10 6 4 3 21 1 40 -4 43 -12 67 7 39 32 -10 9
-25 16 -35 16 -15 0 -34 26 -25 35 2 2 24 -6 49 -17 29 -14 45 -17 48 -9 2 6
8 11 14 11 5 0 15 6 22 13 10 10 1 16 -48 30 -94 29 -112 37 -97 47 18 10 5
31 -14 23 -8 -3 -15 -1 -15 5 0 10 -30 18 -103 29 -20 3 -40 9 -43 14 -3 5
-12 9 -20 9 -9 0 -22 7 -30 15 -11 10 -39 14 -105 14 -104 0 -119 -4 -119 -30
0 -23 -18 -25 -27 -4 -3 9 3 22 13 31 18 14 16 15 -21 9 -51 -9 -75 -22 -75
-41 0 -26 24 -41 78 -49 46 -6 50 -9 37 -22 -8 -8 -15 -19 -15 -24 0 -5 -7 -9
-16 -9 -8 0 -12 -5 -8 -11 4 -7 -1 -10 -12 -7 -11 2 -19 10 -19 18 0 20 -16
31 -37 24 -10 -3 -18 -1 -18 5 0 6 -12 11 -27 11 -14 0 -23 3 -20 6 8 8 -36
44 -53 44 -10 0 -10 3 0 15 7 8 22 15 34 15 12 0 31 7 42 15 17 13 14 14 -43
15 -34 0 -64 -4 -67 -9z m311 -97 c-3 -3 -12 -4 -19 -1 -8 3 -5 6 6 6 11 1 17
-2 13 -5z"/>
<path d="M6563 6383 c-22 -8 -14 -23 12 -23 16 0 25 6 25 15 0 15 -14 18 -37
8z"/>
<path d="M6320 6302 c0 -11 -6 -22 -12 -25 -7 -2 2 -7 20 -11 21 -5 38 -3 47
4 11 9 22 9 46 1 38 -13 39 -13 39 -3 0 9 -64 37 -107 47 -29 6 -33 4 -33 -13z"/>
<path d="M6385 6240 c-3 -5 1 -10 9 -10 8 0 18 5 21 10 3 6 -1 10 -9 10 -8 0
-18 -4 -21 -10z"/>
<path d="M6475 6230 c-3 -5 -1 -10 4 -10 6 0 11 5 11 10 0 6 -2 10 -4 10 -3 0
-8 -4 -11 -10z"/>
<path d="M5140 6022 c0 -5 10 -17 21 -28 22 -19 22 -19 11 2 -6 12 -8 24 -5
28 3 3 -1 6 -10 6 -9 0 -17 -4 -17 -8z"/>
<path d="M6440 6000 c0 -5 5 -10 11 -10 5 0 7 5 4 10 -3 6 -8 10 -11 10 -2 0
-4 -4 -4 -10z"/>
<path d="M6890 5910 c8 -5 22 -10 30 -10 13 0 13 1 0 10 -8 5 -22 10 -30 10
-13 0 -13 -1 0 -10z"/>
<path d="M7137 5864 c-8 -8 1 -24 14 -24 5 0 9 7 9 15 0 15 -12 20 -23 9z"/>
<path d="M6520 5281 c0 -6 4 -13 10 -16 6 -3 7 1 4 9 -7 18 -14 21 -14 7z"/>
<path d="M6405 5242 c-11 -2 -24 -9 -30 -14 -7 -7 -2 -9 15 -5 45 11 174 -36
154 -56 -4 -4 24 -3 71 2 16 2 -115 61 -154 69 -20 5 -45 6 -56 4z"/>
<path d="M4560 5154 c0 -8 5 -12 10 -9 6 4 8 11 5 16 -9 14 -15 11 -15 -7z"/>
<path d="M6650 5160 c0 -3 5 -11 12 -18 9 -9 5 -12 -17 -13 -25 -2 -24 -3 10
-8 22 -4 50 -3 62 1 13 4 30 5 38 2 8 -4 15 -2 15 4 0 5 -10 13 -22 17 -36 13
-98 22 -98 15z"/>
<path d="M6525 5120 c3 -5 16 -10 28 -10 18 0 19 2 7 10 -20 13 -43 13 -35 0z"/>
<path d="M6800 5120 c0 -5 6 -10 14 -10 8 0 18 5 21 10 3 6 -3 10 -14 10 -12
0 -21 -4 -21 -10z"/>
<path d="M6875 3590 c-3 -5 -1 -10 4 -10 6 0 11 5 11 10 0 6 -2 10 -4 10 -3 0
-8 -4 -11 -10z"/>
<path d="M6966 3352 c-6 -10 51 -8 61 1 3 4 -8 7 -25 7 -17 0 -33 -4 -36 -8z"/>
<path d="M4235 7233 c-174 -14 -477 -71 -472 -87 6 -18 136 -124 222 -181 86
-57 243 -145 261 -145 6 0 47 49 92 109 45 60 118 148 163 196 45 47 80 87 78
90 -3 2 -43 9 -89 14 -80 10 -166 12 -255 4z"/>
<path d="M8286 7229 c-38 -5 -71 -11 -74 -13 -2 -2 20 -28 48 -58 71 -73 177
-200 234 -281 l48 -68 84 45 c162 86 404 260 404 291 0 12 -178 51 -345 75
-107 15 -322 20 -399 9z"/>
<path d="M1695 7070 c-144 -37 -404 -159 -562 -262 -144 -94 -295 -219 -281
-234 11 -11 287 -63 417 -78 165 -21 379 -21 479 0 183 37 458 158 638 279
104 71 96 69 197 49 27 -6 26 -7 -43 -56 -265 -187 -476 -492 -594 -857 -29
-90 -86 -319 -86 -347 0 -3 -9 -3 -20 1 -15 5 -24 -3 -44 -43 -23 -46 -29 -50
-103 -77 -287 -103 -468 -234 -555 -400 -66 -129 -128 -317 -184 -560 -12 -55
-21 -102 -19 -104 7 -7 114 33 222 84 137 65 246 139 316 214 90 99 197 330
291 634 46 148 73 214 83 204 3 -3 -1 -62 -7 -132 -14 -141 -9 -418 11 -558 6
-48 14 -86 16 -83 2 2 -1 60 -8 128 -14 148 -7 418 16 568 92 608 374 1078
790 1315 299 171 642 196 996 73 91 -32 94 -34 92 -62 -1 -16 -4 -30 -6 -33
-3 -2 -36 -9 -73 -14 -122 -17 -275 -58 -336 -91 -117 -62 -227 -213 -287
-393 -45 -136 -86 -405 -62 -405 19 0 191 66 287 110 214 99 396 237 445 336
13 29 33 117 54 247 32 200 41 237 54 237 11 0 183 -100 234 -136 26 -19 49
-34 51 -34 6 0 56 91 56 101 0 16 -119 88 -245 149 -216 105 -387 149 -611
157 -222 8 -409 -29 -578 -114 -49 -25 -50 -25 -165 -13 l-116 13 -83 54 c-95
63 -190 106 -299 133 -102 26 -279 26 -378 0z"/>
<path d="M10710 7069 c-93 -24 -224 -86 -306 -144 -47 -34 -72 -45 -101 -46
-21 0 -72 -6 -113 -12 -75 -13 -75 -12 -146 20 -197 90 -342 118 -569 110
-269 -10 -497 -78 -740 -222 -137 -81 -130 -71 -92 -132 l33 -52 59 40 c33 22
98 61 144 86 81 44 84 46 98 27 16 -22 14 -10 48 -239 31 -207 48 -249 130
-331 60 -61 184 -144 300 -202 84 -41 291 -126 337 -137 26 -7 26 -6 22 37
-21 199 -57 346 -118 472 -114 240 -232 319 -555 372 -93 15 -99 18 -103 54
-3 23 4 27 91 58 343 119 678 99 967 -58 331 -178 585 -506 722 -930 99 -305
133 -616 110 -980 -4 -65 -3 -90 2 -65 5 22 14 114 21 205 26 360 -35 745
-172 1073 -117 283 -299 522 -518 682 -89 65 -89 67 7 79 49 6 56 4 90 -22
156 -123 500 -280 699 -318 98 -18 316 -18 473 1 116 14 407 69 417 78 7 7
-121 119 -203 178 -182 131 -475 275 -651 320 -104 26 -279 25 -383 -2z"/>
<path d="M10944 5557 c-3 -8 5 -32 19 -54 13 -21 32 -67 41 -103 31 -110 116
-350 162 -454 107 -245 205 -348 439 -464 114 -56 243 -107 252 -99 9 10 -56
271 -102 412 -81 249 -147 358 -277 455 -86 65 -252 150 -378 195 -70 24 -77
29 -100 72 -27 50 -46 64 -56 40z"/>
<path d="M8956 5118 c-31 -333 -148 -709 -314 -1003 -117 -209 -249 -382 -422
-556 -399 -402 -878 -642 -1465 -736 -157 -25 -564 -25 -725 0 -558 87 -1040
324 -1429 702 -359 349 -611 795 -715 1268 -23 103 -29 142 -56 327 -7 50 -8
25 -5 -110 2 -96 11 -222 20 -280 156 -1011 857 -1809 1844 -2099 57 -17 111
-31 120 -31 10 0 30 -13 46 -30 l28 -29 -6 -128 c-7 -162 -69 -616 -108 -793
-57 -257 -135 -517 -226 -752 -38 -98 -55 -128 -101 -179 -30 -33 -78 -76
-106 -95 l-51 -34 1078 0 c592 0 1077 3 1077 6 0 3 -33 43 -74 89 -65 72 -79
96 -116 191 -147 379 -260 823 -309 1224 -18 144 -41 400 -41 452 0 30 80 74
200 108 584 165 1102 541 1434 1040 216 325 349 669 411 1065 15 97 33 455 23
455 -3 0 -8 -33 -12 -72z"/>
<path d="M10912 4730 c0 -14 2 -19 5 -12 2 6 2 18 0 25 -3 6 -5 1 -5 -13z"/>
</g>
</svg>
